<mxfile host="app.diagrams.net" modified="2023-06-13T19:31:27.453Z" agent="Mozilla/5.0 (Macintosh; Intel Mac OS X 10_15_7) AppleWebKit/537.36 (KHTML, like Gecko) Chrome/114.0.0.0 Safari/537.36" etag="OhXW-EQIanUzrl-HqMtx" version="21.3.8" type="device">
  <diagram name="Страница 1" id="gJiwEVocgx2RwedTVvtW">
    <mxGraphModel dx="1272" dy="864" grid="1" gridSize="10" guides="1" tooltips="1" connect="1" arrows="1" fold="1" page="1" pageScale="1" pageWidth="827" pageHeight="1169" math="0" shadow="0">
      <root>
        <mxCell id="0" />
        <mxCell id="1" parent="0" />
        <mxCell id="ut9Y865TPv0NhKl7uxPF-6" style="edgeStyle=orthogonalEdgeStyle;rounded=0;orthogonalLoop=1;jettySize=auto;html=1;entryX=0.5;entryY=0;entryDx=0;entryDy=0;" edge="1" parent="1" source="_vcjOT8KcbfN67wf4KzJ-2" target="ut9Y865TPv0NhKl7uxPF-1">
          <mxGeometry relative="1" as="geometry" />
        </mxCell>
        <mxCell id="ut9Y865TPv0NhKl7uxPF-7" style="edgeStyle=orthogonalEdgeStyle;rounded=0;orthogonalLoop=1;jettySize=auto;html=1;" edge="1" parent="1" target="ut9Y865TPv0NhKl7uxPF-2">
          <mxGeometry relative="1" as="geometry">
            <mxPoint x="430" y="113.0666666666666" as="sourcePoint" />
          </mxGeometry>
        </mxCell>
        <mxCell id="_vcjOT8KcbfN67wf4KzJ-2" value="Animal" style="swimlane;fontStyle=0;childLayout=stackLayout;horizontal=1;startSize=26;horizontalStack=0;resizeParent=1;resizeParentMax=0;resizeLast=0;collapsible=1;marginBottom=0;align=center;fontSize=14;" parent="1" vertex="1">
          <mxGeometry x="360" y="100" width="110" height="26" as="geometry" />
        </mxCell>
        <mxCell id="_vcjOT8KcbfN67wf4KzJ-18" value="Dog" style="swimlane;fontStyle=0;childLayout=stackLayout;horizontal=1;startSize=26;horizontalStack=0;resizeParent=1;resizeParentMax=0;resizeLast=0;collapsible=1;marginBottom=0;align=center;fontSize=14;" parent="1" vertex="1">
          <mxGeometry x="40" y="240" width="110" height="20" as="geometry" />
        </mxCell>
        <mxCell id="_vcjOT8KcbfN67wf4KzJ-23" value="Cat" style="swimlane;fontStyle=0;childLayout=stackLayout;horizontal=1;startSize=26;horizontalStack=0;resizeParent=1;resizeParentMax=0;resizeLast=0;collapsible=1;marginBottom=0;align=center;fontSize=14;" parent="1" vertex="1">
          <mxGeometry x="170" y="240" width="100" height="20" as="geometry" />
        </mxCell>
        <mxCell id="_vcjOT8KcbfN67wf4KzJ-28" value="Hamster" style="swimlane;fontStyle=0;childLayout=stackLayout;horizontal=1;startSize=26;horizontalStack=0;resizeParent=1;resizeParentMax=0;resizeLast=0;collapsible=1;marginBottom=0;align=center;fontSize=14;" parent="1" vertex="1">
          <mxGeometry x="290" y="240" width="110" height="20" as="geometry" />
        </mxCell>
        <mxCell id="ut9Y865TPv0NhKl7uxPF-11" style="edgeStyle=orthogonalEdgeStyle;rounded=0;orthogonalLoop=1;jettySize=auto;html=1;entryX=0.5;entryY=0;entryDx=0;entryDy=0;" edge="1" parent="1" source="ut9Y865TPv0NhKl7uxPF-1" target="_vcjOT8KcbfN67wf4KzJ-28">
          <mxGeometry relative="1" as="geometry" />
        </mxCell>
        <mxCell id="ut9Y865TPv0NhKl7uxPF-12" style="edgeStyle=orthogonalEdgeStyle;rounded=0;orthogonalLoop=1;jettySize=auto;html=1;entryX=0.5;entryY=0;entryDx=0;entryDy=0;" edge="1" parent="1" source="ut9Y865TPv0NhKl7uxPF-1" target="_vcjOT8KcbfN67wf4KzJ-23">
          <mxGeometry relative="1" as="geometry" />
        </mxCell>
        <mxCell id="ut9Y865TPv0NhKl7uxPF-13" style="edgeStyle=orthogonalEdgeStyle;rounded=0;orthogonalLoop=1;jettySize=auto;html=1;entryX=0.5;entryY=0;entryDx=0;entryDy=0;" edge="1" parent="1" source="ut9Y865TPv0NhKl7uxPF-1" target="_vcjOT8KcbfN67wf4KzJ-18">
          <mxGeometry relative="1" as="geometry" />
        </mxCell>
        <mxCell id="ut9Y865TPv0NhKl7uxPF-1" value="HomeAnimal" style="swimlane;fontStyle=0;childLayout=stackLayout;horizontal=1;startSize=26;horizontalStack=0;resizeParent=1;resizeParentMax=0;resizeLast=0;collapsible=1;marginBottom=0;align=center;fontSize=14;" vertex="1" parent="1">
          <mxGeometry x="160" y="170" width="120" height="26" as="geometry" />
        </mxCell>
        <mxCell id="ut9Y865TPv0NhKl7uxPF-8" style="edgeStyle=orthogonalEdgeStyle;rounded=0;orthogonalLoop=1;jettySize=auto;html=1;entryX=0.5;entryY=0;entryDx=0;entryDy=0;" edge="1" parent="1" source="ut9Y865TPv0NhKl7uxPF-2" target="ut9Y865TPv0NhKl7uxPF-3">
          <mxGeometry relative="1" as="geometry" />
        </mxCell>
        <mxCell id="ut9Y865TPv0NhKl7uxPF-9" style="edgeStyle=orthogonalEdgeStyle;rounded=0;orthogonalLoop=1;jettySize=auto;html=1;entryX=0.5;entryY=0;entryDx=0;entryDy=0;" edge="1" parent="1" source="ut9Y865TPv0NhKl7uxPF-2" target="ut9Y865TPv0NhKl7uxPF-4">
          <mxGeometry relative="1" as="geometry" />
        </mxCell>
        <mxCell id="ut9Y865TPv0NhKl7uxPF-10" style="edgeStyle=orthogonalEdgeStyle;rounded=0;orthogonalLoop=1;jettySize=auto;html=1;" edge="1" parent="1" source="ut9Y865TPv0NhKl7uxPF-2" target="ut9Y865TPv0NhKl7uxPF-5">
          <mxGeometry relative="1" as="geometry" />
        </mxCell>
        <mxCell id="ut9Y865TPv0NhKl7uxPF-2" value="PackAnimal" style="swimlane;fontStyle=0;childLayout=stackLayout;horizontal=1;startSize=26;horizontalStack=0;resizeParent=1;resizeParentMax=0;resizeLast=0;collapsible=1;marginBottom=0;align=center;fontSize=14;" vertex="1" parent="1">
          <mxGeometry x="540" y="170" width="130" height="26" as="geometry" />
        </mxCell>
        <mxCell id="ut9Y865TPv0NhKl7uxPF-3" value="Horse" style="swimlane;fontStyle=0;childLayout=stackLayout;horizontal=1;startSize=26;horizontalStack=0;resizeParent=1;resizeParentMax=0;resizeLast=0;collapsible=1;marginBottom=0;align=center;fontSize=14;" vertex="1" parent="1">
          <mxGeometry x="440" y="240" width="90" height="20" as="geometry" />
        </mxCell>
        <mxCell id="ut9Y865TPv0NhKl7uxPF-4" value="Camel" style="swimlane;fontStyle=0;childLayout=stackLayout;horizontal=1;startSize=26;horizontalStack=0;resizeParent=1;resizeParentMax=0;resizeLast=0;collapsible=1;marginBottom=0;align=center;fontSize=14;" vertex="1" parent="1">
          <mxGeometry x="550" y="240" width="110" height="20" as="geometry" />
        </mxCell>
        <mxCell id="ut9Y865TPv0NhKl7uxPF-5" value="Hamster" style="swimlane;fontStyle=0;childLayout=stackLayout;horizontal=1;startSize=26;horizontalStack=0;resizeParent=1;resizeParentMax=0;resizeLast=0;collapsible=1;marginBottom=0;align=center;fontSize=14;" vertex="1" parent="1">
          <mxGeometry x="690" y="240" width="110" height="20" as="geometry" />
        </mxCell>
      </root>
    </mxGraphModel>
  </diagram>
</mxfile>
